<mxfile host="www.draw.io" modified="2019-11-19T07:22:30.730Z" agent="Mozilla/5.0 (Macintosh; Intel Mac OS X 10_14_6) AppleWebKit/537.36 (KHTML, like Gecko) Chrome/78.0.3904.108 Safari/537.36" etag="ToupqX6iO87F1mne9fEA" version="12.2.6" type="github" pages="1">
  <diagram id="C8gGin8zCCWMM8zuD61A" name="Page-1">
    <mxGraphModel dx="1206" dy="757" grid="1" gridSize="10" guides="1" tooltips="1" connect="1" arrows="1" fold="1" page="1" pageScale="1" pageWidth="827" pageHeight="1169" math="0" shadow="0">
      <root>
        <mxCell id="0"/>
        <mxCell id="1" parent="0"/>
        <mxCell id="CbvE8tjpt2fCtOc4ycin-66" value="" style="group" parent="1" vertex="1" connectable="0">
          <mxGeometry x="50" y="676" width="860" height="230" as="geometry"/>
        </mxCell>
        <mxCell id="CbvE8tjpt2fCtOc4ycin-39" value="" style="rounded=1;whiteSpace=wrap;html=1;dashed=1;" parent="CbvE8tjpt2fCtOc4ycin-66" vertex="1">
          <mxGeometry y="-15" width="850" height="155" as="geometry"/>
        </mxCell>
        <mxCell id="CbvE8tjpt2fCtOc4ycin-102" value="&lt;h1&gt;&lt;font color=&quot;#ea6b66&quot;&gt;数据层&lt;/font&gt;&lt;/h1&gt;" style="text;html=1;resizable=0;autosize=1;align=center;verticalAlign=middle;points=[];fillColor=none;strokeColor=none;rounded=0;dashed=1;" parent="CbvE8tjpt2fCtOc4ycin-66" vertex="1">
          <mxGeometry x="10.147759103641457" y="-16.537121212121214" width="90" height="50" as="geometry"/>
        </mxCell>
        <mxCell id="CbvE8tjpt2fCtOc4ycin-132" value="&lt;h2&gt;NSearch&lt;/h2&gt;" style="text;html=1;resizable=0;autosize=1;align=center;verticalAlign=middle;points=[];fillColor=none;strokeColor=none;rounded=0;" parent="CbvE8tjpt2fCtOc4ycin-66" vertex="1">
          <mxGeometry x="327.7023809523809" y="92.80769230769229" width="90" height="50" as="geometry"/>
        </mxCell>
        <mxCell id="CbvE8tjpt2fCtOc4ycin-133" value="&lt;h2&gt;Redis&lt;/h2&gt;" style="text;html=1;resizable=0;autosize=1;align=center;verticalAlign=middle;points=[];fillColor=none;strokeColor=none;rounded=0;" parent="CbvE8tjpt2fCtOc4ycin-66" vertex="1">
          <mxGeometry x="529.8928571428571" y="93.01410256410256" width="60" height="50" as="geometry"/>
        </mxCell>
        <mxCell id="CbvE8tjpt2fCtOc4ycin-134" value="&lt;h2&gt;MyRocks&lt;/h2&gt;" style="text;html=1;resizable=0;autosize=1;align=center;verticalAlign=middle;points=[];fillColor=none;strokeColor=none;rounded=0;" parent="CbvE8tjpt2fCtOc4ycin-66" vertex="1">
          <mxGeometry x="702.3095238095237" y="92.76923076923077" width="90" height="50" as="geometry"/>
        </mxCell>
        <mxCell id="X8DTBH9zhgD74dMaE-Rt-30" value="" style="rounded=0;orthogonalLoop=1;jettySize=auto;html=1;exitX=0.013;exitY=0.607;exitDx=0;exitDy=0;exitPerimeter=0;shape=flexArrow;fillColor=#d5e8d4;strokeColor=#82b366;" edge="1" parent="CbvE8tjpt2fCtOc4ycin-66" source="CbvE8tjpt2fCtOc4ycin-137" target="CbvE8tjpt2fCtOc4ycin-27">
          <mxGeometry relative="1" as="geometry"/>
        </mxCell>
        <mxCell id="CbvE8tjpt2fCtOc4ycin-137" value="" style="aspect=fixed;html=1;points=[];align=center;image;fontSize=12;image=img/lib/mscae/Cache_including_Redis.svg;fillColor=#FFFFFF;" parent="CbvE8tjpt2fCtOc4ycin-66" vertex="1">
          <mxGeometry x="340.1428571428571" y="33.25769230769231" width="65.46153846153845" height="65.46153846153845" as="geometry"/>
        </mxCell>
        <mxCell id="CbvE8tjpt2fCtOc4ycin-136" value="" style="aspect=fixed;html=1;points=[];align=center;image;fontSize=12;image=img/lib/mscae/Cache_Redis_Product.svg;fillColor=#FFFFFF;" parent="CbvE8tjpt2fCtOc4ycin-66" vertex="1">
          <mxGeometry x="520.047619047619" y="45.79615384615384" width="69.88461538461539" height="58.38461538461538" as="geometry"/>
        </mxCell>
        <mxCell id="CbvE8tjpt2fCtOc4ycin-138" value="" style="outlineConnect=0;dashed=0;verticalLabelPosition=bottom;verticalAlign=top;align=center;html=1;shape=mxgraph.aws3.dynamo_db;fillColor=#2E73B8;gradientColor=none;" parent="CbvE8tjpt2fCtOc4ycin-66" vertex="1">
          <mxGeometry x="709.8095238095237" y="37" width="61.42857142857142" height="61.92307692307692" as="geometry"/>
        </mxCell>
        <mxCell id="X8DTBH9zhgD74dMaE-Rt-29" value="" style="group" vertex="1" connectable="0" parent="CbvE8tjpt2fCtOc4ycin-66">
          <mxGeometry x="55.14285714285714" y="33.38461538461539" width="214.99999999999997" height="79.61538461538461" as="geometry"/>
        </mxCell>
        <mxCell id="CbvE8tjpt2fCtOc4ycin-61" value="" style="group" parent="X8DTBH9zhgD74dMaE-Rt-29" vertex="1" connectable="0">
          <mxGeometry width="214.99999999999997" height="79.61538461538461" as="geometry"/>
        </mxCell>
        <mxCell id="CbvE8tjpt2fCtOc4ycin-22" value="Score1" style="rounded=1;whiteSpace=wrap;html=1;" parent="CbvE8tjpt2fCtOc4ycin-61" vertex="1">
          <mxGeometry x="7.962962962962962" y="8.846153846153847" width="71.66666666666666" height="44.230769230769226" as="geometry"/>
        </mxCell>
        <mxCell id="CbvE8tjpt2fCtOc4ycin-24" value="ScoreN" style="rounded=1;whiteSpace=wrap;html=1;" parent="CbvE8tjpt2fCtOc4ycin-61" vertex="1">
          <mxGeometry x="111.48148148148147" y="8.846153846153847" width="71.66666666666666" height="44.230769230769226" as="geometry"/>
        </mxCell>
        <mxCell id="CbvE8tjpt2fCtOc4ycin-27" value="" style="rounded=1;whiteSpace=wrap;html=1;dashed=1;" parent="CbvE8tjpt2fCtOc4ycin-61" vertex="1">
          <mxGeometry width="214.99999999999997" height="79.61538461538461" as="geometry"/>
        </mxCell>
        <mxCell id="CbvE8tjpt2fCtOc4ycin-28" value="Score1" style="rounded=1;whiteSpace=wrap;html=1;fillColor=#fff2cc;strokeColor=#d6b656;" parent="CbvE8tjpt2fCtOc4ycin-61" vertex="1">
          <mxGeometry x="15.925925925925924" y="17.692307692307693" width="71.66666666666666" height="44.230769230769226" as="geometry"/>
        </mxCell>
        <mxCell id="CbvE8tjpt2fCtOc4ycin-29" value="ScoreN" style="rounded=1;whiteSpace=wrap;html=1;fillColor=#fff2cc;strokeColor=#d6b656;" parent="CbvE8tjpt2fCtOc4ycin-61" vertex="1">
          <mxGeometry x="119.44444444444444" y="17.692307692307693" width="71.66666666666666" height="44.230769230769226" as="geometry"/>
        </mxCell>
        <mxCell id="CbvE8tjpt2fCtOc4ycin-52" value="&lt;font style=&quot;font-size: 18px&quot;&gt;...&lt;/font&gt;" style="text;html=1;resizable=0;autosize=1;align=center;verticalAlign=middle;points=[];fillColor=none;strokeColor=none;rounded=0;dashed=1;" parent="CbvE8tjpt2fCtOc4ycin-61" vertex="1">
          <mxGeometry x="91.57407407407406" y="32.28846153846154" width="30" height="20" as="geometry"/>
        </mxCell>
        <mxCell id="CbvE8tjpt2fCtOc4ycin-109" value="&lt;b&gt;&lt;font color=&quot;#ea6b66&quot;&gt;粗排层&lt;/font&gt;&lt;/b&gt;" style="text;html=1;resizable=0;autosize=1;align=center;verticalAlign=middle;points=[];fillColor=none;strokeColor=none;rounded=0;dashed=1;" parent="CbvE8tjpt2fCtOc4ycin-61" vertex="1">
          <mxGeometry x="0.5119047619047619" width="50" height="20" as="geometry"/>
        </mxCell>
        <mxCell id="CbvE8tjpt2fCtOc4ycin-68" value="" style="rounded=1;whiteSpace=wrap;html=1;dashed=1;fillColor=#FFFFFF;" parent="1" vertex="1">
          <mxGeometry x="50" y="185" width="530" height="420" as="geometry"/>
        </mxCell>
        <mxCell id="CbvE8tjpt2fCtOc4ycin-18" value="&lt;span style=&quot;color: rgba(0 , 0 , 0 , 0) ; font-family: monospace ; font-size: 0px ; white-space: nowrap&quot;&gt;%3CmxGraphModel%3E%3Croot%3E%3CmxCell%20id%3D%220%22%2F%3E%3CmxCell%20id%3D%221%22%20parent%3D%220%22%2F%3E%3CmxCell%20id%3D%222%22%20value%3D%22%26lt%3Bh1%26gt%3B%26lt%3Bfont%20color%3D%26quot%3B%23ea6b66%26quot%3B%26gt%3B%E6%95%B0%E6%8D%AE%E5%B1%82%26lt%3B%2Ffont%26gt%3B%26lt%3B%2Fh1%26gt%3B%22%20style%3D%22text%3Bhtml%3D1%3Bresizable%3D0%3Bautosize%3D1%3Balign%3Dcenter%3BverticalAlign%3Dmiddle%3Bpoints%3D%5B%5D%3BfillColor%3Dnone%3BstrokeColor%3Dnone%3Brounded%3D0%3Bdashed%3D1%3B%22%20vertex%3D%221%22%20parent%3D%221%22%3E%3CmxGeometry%20x%3D%2269.91176470588235%22%20y%3D%22840.1931818181819%22%20width%3D%2290%22%20height%3D%2250%22%20as%3D%22geometry%22%2F%3E%3C%2FmxCell%3E%3C%2Froot%3E%3C%2FmxGraphModel%3E&lt;/span&gt;" style="rounded=1;whiteSpace=wrap;html=1;dashed=1;fillColor=#ffe6cc;strokeColor=#d79b00;" parent="1" vertex="1">
          <mxGeometry x="85" y="375" width="150" height="210" as="geometry"/>
        </mxCell>
        <mxCell id="CbvE8tjpt2fCtOc4ycin-60" value="" style="group" parent="1" vertex="1" connectable="0">
          <mxGeometry x="80" y="242.5" width="470" height="90" as="geometry"/>
        </mxCell>
        <mxCell id="CbvE8tjpt2fCtOc4ycin-13" value="" style="rounded=1;whiteSpace=wrap;html=1;dashed=1;" parent="CbvE8tjpt2fCtOc4ycin-60" vertex="1">
          <mxGeometry width="470" height="90" as="geometry"/>
        </mxCell>
        <mxCell id="CbvE8tjpt2fCtOc4ycin-14" value="Acc" style="rounded=1;whiteSpace=wrap;html=1;fillColor=#dae8fc;strokeColor=#6c8ebf;" parent="CbvE8tjpt2fCtOc4ycin-60" vertex="1">
          <mxGeometry x="24.102564102564102" y="20" width="108.46153846153845" height="50" as="geometry"/>
        </mxCell>
        <mxCell id="CbvE8tjpt2fCtOc4ycin-15" value="Basic" style="rounded=1;whiteSpace=wrap;html=1;fillColor=#dae8fc;strokeColor=#6c8ebf;" parent="CbvE8tjpt2fCtOc4ycin-60" vertex="1">
          <mxGeometry x="180.76923076923077" y="20" width="108.46153846153845" height="50" as="geometry"/>
        </mxCell>
        <mxCell id="CbvE8tjpt2fCtOc4ycin-16" value="Fuzzy" style="rounded=1;whiteSpace=wrap;html=1;fillColor=#dae8fc;strokeColor=#6c8ebf;" parent="CbvE8tjpt2fCtOc4ycin-60" vertex="1">
          <mxGeometry x="337.4358974358974" y="20" width="108.46153846153845" height="50" as="geometry"/>
        </mxCell>
        <mxCell id="CbvE8tjpt2fCtOc4ycin-101" value="&lt;font color=&quot;#ea6b66&quot;&gt;&lt;b&gt;策略中心&lt;/b&gt;&lt;/font&gt;" style="text;html=1;resizable=0;autosize=1;align=center;verticalAlign=middle;points=[];fillColor=none;strokeColor=none;rounded=0;dashed=1;" parent="CbvE8tjpt2fCtOc4ycin-60" vertex="1">
          <mxGeometry x="6.0256410256410255" width="60" height="20" as="geometry"/>
        </mxCell>
        <mxCell id="CbvE8tjpt2fCtOc4ycin-67" value="" style="group" parent="1" vertex="1" connectable="0">
          <mxGeometry x="609.5" y="495" width="270" height="110" as="geometry"/>
        </mxCell>
        <mxCell id="CbvE8tjpt2fCtOc4ycin-54" value="" style="rounded=1;whiteSpace=wrap;html=1;dashed=1;" parent="CbvE8tjpt2fCtOc4ycin-67" vertex="1">
          <mxGeometry x="-9.310344827586206" y="-10" width="279.3103448275862" height="110" as="geometry"/>
        </mxCell>
        <mxCell id="CbvE8tjpt2fCtOc4ycin-55" value="混排1" style="rounded=1;whiteSpace=wrap;html=1;fillColor=#fff2cc;strokeColor=#d6b656;" parent="CbvE8tjpt2fCtOc4ycin-67" vertex="1">
          <mxGeometry x="18.620689655172413" y="30" width="83.79310344827586" height="50" as="geometry"/>
        </mxCell>
        <mxCell id="CbvE8tjpt2fCtOc4ycin-56" value="混排N" style="rounded=1;whiteSpace=wrap;html=1;fillColor=#fff2cc;strokeColor=#d6b656;" parent="CbvE8tjpt2fCtOc4ycin-67" vertex="1">
          <mxGeometry x="148.9655172413793" y="30" width="83.79310344827586" height="50" as="geometry"/>
        </mxCell>
        <mxCell id="CbvE8tjpt2fCtOc4ycin-57" value="&lt;font style=&quot;font-size: 18px&quot;&gt;...&lt;/font&gt;" style="text;html=1;resizable=0;autosize=1;align=center;verticalAlign=middle;points=[];fillColor=none;strokeColor=none;rounded=0;dashed=1;" parent="CbvE8tjpt2fCtOc4ycin-67" vertex="1">
          <mxGeometry x="111.72413793103448" y="44.5" width="30" height="20" as="geometry"/>
        </mxCell>
        <mxCell id="CbvE8tjpt2fCtOc4ycin-90" value="&lt;font color=&quot;#ea6b66&quot;&gt;&lt;b&gt;混排层Neuraly&lt;/b&gt;&lt;/font&gt;" style="text;html=1;resizable=0;autosize=1;align=center;verticalAlign=middle;points=[];fillColor=none;strokeColor=none;rounded=0;dashed=1;" parent="CbvE8tjpt2fCtOc4ycin-67" vertex="1">
          <mxGeometry x="-5" width="100" height="20" as="geometry"/>
        </mxCell>
        <mxCell id="CbvE8tjpt2fCtOc4ycin-72" value="" style="group" parent="1" vertex="1" connectable="0">
          <mxGeometry x="283" y="375" width="260" height="215" as="geometry"/>
        </mxCell>
        <mxCell id="CbvE8tjpt2fCtOc4ycin-63" value="" style="group" parent="CbvE8tjpt2fCtOc4ycin-72" vertex="1" connectable="0">
          <mxGeometry width="260" height="90" as="geometry"/>
        </mxCell>
        <mxCell id="CbvE8tjpt2fCtOc4ycin-33" value="" style="rounded=1;whiteSpace=wrap;html=1;dashed=1;" parent="CbvE8tjpt2fCtOc4ycin-63" vertex="1">
          <mxGeometry width="260" height="90" as="geometry"/>
        </mxCell>
        <mxCell id="CbvE8tjpt2fCtOc4ycin-34" value="业务干预" style="rounded=1;whiteSpace=wrap;html=1;fillColor=#ffe6cc;strokeColor=#d79b00;" parent="CbvE8tjpt2fCtOc4ycin-63" vertex="1">
          <mxGeometry x="19.25925925925926" y="20" width="86.66666666666666" height="50" as="geometry"/>
        </mxCell>
        <mxCell id="CbvE8tjpt2fCtOc4ycin-35" value="运营干预" style="rounded=1;whiteSpace=wrap;html=1;fillColor=#ffe6cc;strokeColor=#d79b00;" parent="CbvE8tjpt2fCtOc4ycin-63" vertex="1">
          <mxGeometry x="144.44444444444443" y="20" width="86.66666666666666" height="50" as="geometry"/>
        </mxCell>
        <mxCell id="CbvE8tjpt2fCtOc4ycin-143" value="&lt;h1&gt;&lt;font color=&quot;#ea6b66&quot; style=&quot;font-size: 14px&quot;&gt;干预层&lt;/font&gt;&lt;/h1&gt;" style="text;html=1;resizable=0;autosize=1;align=center;verticalAlign=middle;points=[];fillColor=none;strokeColor=none;rounded=0;dashed=1;" parent="CbvE8tjpt2fCtOc4ycin-63" vertex="1">
          <mxGeometry x="-0.0882352941176805" y="-19.80681818181813" width="60" height="50" as="geometry"/>
        </mxCell>
        <mxCell id="CbvE8tjpt2fCtOc4ycin-64" value="" style="group" parent="CbvE8tjpt2fCtOc4ycin-72" vertex="1" connectable="0">
          <mxGeometry y="125" width="260" height="90" as="geometry"/>
        </mxCell>
        <mxCell id="CbvE8tjpt2fCtOc4ycin-36" value="" style="rounded=1;whiteSpace=wrap;html=1;dashed=1;" parent="CbvE8tjpt2fCtOc4ycin-64" vertex="1">
          <mxGeometry width="260.00000000000006" height="90.00000000000001" as="geometry"/>
        </mxCell>
        <mxCell id="CbvE8tjpt2fCtOc4ycin-37" value="合并" style="rounded=1;whiteSpace=wrap;html=1;fillColor=#ffe6cc;strokeColor=#d79b00;" parent="CbvE8tjpt2fCtOc4ycin-64" vertex="1">
          <mxGeometry x="19.259259259259263" y="20.000000000000007" width="86.66666666666669" height="50.00000000000001" as="geometry"/>
        </mxCell>
        <mxCell id="CbvE8tjpt2fCtOc4ycin-38" value="组装" style="rounded=1;whiteSpace=wrap;html=1;fillColor=#ffe6cc;strokeColor=#d79b00;" parent="CbvE8tjpt2fCtOc4ycin-64" vertex="1">
          <mxGeometry x="144.44444444444446" y="20.000000000000007" width="86.66666666666669" height="50.00000000000001" as="geometry"/>
        </mxCell>
        <mxCell id="CbvE8tjpt2fCtOc4ycin-144" value="&lt;h1&gt;&lt;font color=&quot;#ea6b66&quot;&gt;&lt;span style=&quot;font-size: 14px&quot;&gt;组装层&lt;/span&gt;&lt;/font&gt;&lt;/h1&gt;" style="text;html=1;resizable=0;autosize=1;align=center;verticalAlign=middle;points=[];fillColor=none;strokeColor=none;rounded=0;dashed=1;" parent="CbvE8tjpt2fCtOc4ycin-64" vertex="1">
          <mxGeometry x="3.4117647058823195" y="-14.80681818181813" width="60" height="50" as="geometry"/>
        </mxCell>
        <mxCell id="CbvE8tjpt2fCtOc4ycin-115" value="" style="edgeStyle=none;shape=flexArrow;rounded=0;orthogonalLoop=1;jettySize=auto;html=1;fillColor=#d5e8d4;strokeColor=#82b366;" parent="CbvE8tjpt2fCtOc4ycin-72" source="CbvE8tjpt2fCtOc4ycin-33" target="CbvE8tjpt2fCtOc4ycin-36" edge="1">
          <mxGeometry relative="1" as="geometry"/>
        </mxCell>
        <mxCell id="CbvE8tjpt2fCtOc4ycin-92" value="" style="group" parent="1" vertex="1" connectable="0">
          <mxGeometry x="609.5" y="345" width="270" height="110" as="geometry"/>
        </mxCell>
        <mxCell id="CbvE8tjpt2fCtOc4ycin-93" value="" style="rounded=1;whiteSpace=wrap;html=1;dashed=1;" parent="CbvE8tjpt2fCtOc4ycin-92" vertex="1">
          <mxGeometry x="-9.310344827586206" y="-10" width="279.3103448275862" height="110" as="geometry"/>
        </mxCell>
        <mxCell id="CbvE8tjpt2fCtOc4ycin-94" value="精排1" style="rounded=1;whiteSpace=wrap;html=1;fillColor=#fff2cc;strokeColor=#d6b656;" parent="CbvE8tjpt2fCtOc4ycin-92" vertex="1">
          <mxGeometry x="18.620689655172413" y="30" width="83.79310344827586" height="50" as="geometry"/>
        </mxCell>
        <mxCell id="CbvE8tjpt2fCtOc4ycin-95" value="精排N" style="rounded=1;whiteSpace=wrap;html=1;fillColor=#fff2cc;strokeColor=#d6b656;" parent="CbvE8tjpt2fCtOc4ycin-92" vertex="1">
          <mxGeometry x="148.9655172413793" y="30" width="83.79310344827586" height="50" as="geometry"/>
        </mxCell>
        <mxCell id="CbvE8tjpt2fCtOc4ycin-96" value="&lt;font style=&quot;font-size: 18px&quot;&gt;...&lt;/font&gt;" style="text;html=1;resizable=0;autosize=1;align=center;verticalAlign=middle;points=[];fillColor=none;strokeColor=none;rounded=0;dashed=1;" parent="CbvE8tjpt2fCtOc4ycin-92" vertex="1">
          <mxGeometry x="111.72413793103448" y="44.5" width="30" height="20" as="geometry"/>
        </mxCell>
        <mxCell id="CbvE8tjpt2fCtOc4ycin-97" value="&lt;font color=&quot;#ea6b66&quot;&gt;&lt;b&gt;精排层Neuralx&lt;/b&gt;&lt;/font&gt;" style="text;html=1;resizable=0;autosize=1;align=center;verticalAlign=middle;points=[];fillColor=none;strokeColor=none;rounded=0;dashed=1;" parent="CbvE8tjpt2fCtOc4ycin-92" vertex="1">
          <mxGeometry x="-5" width="100" height="20" as="geometry"/>
        </mxCell>
        <mxCell id="CbvE8tjpt2fCtOc4ycin-104" value="" style="group;fillColor=#f5f5f5;strokeColor=#666666;fontColor=#333333;" parent="1" vertex="1" connectable="0">
          <mxGeometry x="50" y="60" width="830" height="100" as="geometry"/>
        </mxCell>
        <mxCell id="CbvE8tjpt2fCtOc4ycin-7" value="" style="rounded=1;whiteSpace=wrap;html=1;dashed=1;" parent="CbvE8tjpt2fCtOc4ycin-104" vertex="1">
          <mxGeometry width="830" height="100" as="geometry"/>
        </mxCell>
        <mxCell id="CbvE8tjpt2fCtOc4ycin-3" value="主站搜索" style="rounded=1;whiteSpace=wrap;html=1;fillColor=#ffcccc;strokeColor=#36393d;" parent="CbvE8tjpt2fCtOc4ycin-104" vertex="1">
          <mxGeometry x="31.32075471698114" y="22.22222222222222" width="140.94339622641513" height="55.55555555555556" as="geometry"/>
        </mxCell>
        <mxCell id="CbvE8tjpt2fCtOc4ycin-4" value="直播" style="rounded=1;whiteSpace=wrap;html=1;fillColor=#ffcccc;strokeColor=#36393d;" parent="CbvE8tjpt2fCtOc4ycin-104" vertex="1">
          <mxGeometry x="234.90566037735852" y="22.22222222222222" width="140.94339622641513" height="55.55555555555556" as="geometry"/>
        </mxCell>
        <mxCell id="CbvE8tjpt2fCtOc4ycin-5" value="K歌" style="rounded=1;whiteSpace=wrap;html=1;fillColor=#ffcccc;strokeColor=#36393d;" parent="CbvE8tjpt2fCtOc4ycin-104" vertex="1">
          <mxGeometry x="438.4905660377359" y="22.22222222222222" width="140.94339622641513" height="55.55555555555556" as="geometry"/>
        </mxCell>
        <mxCell id="CbvE8tjpt2fCtOc4ycin-6" value="其他" style="rounded=1;whiteSpace=wrap;html=1;fillColor=#ffcccc;strokeColor=#36393d;" parent="CbvE8tjpt2fCtOc4ycin-104" vertex="1">
          <mxGeometry x="642.0754716981132" y="22.22222222222222" width="140.94339622641513" height="55.55555555555556" as="geometry"/>
        </mxCell>
        <mxCell id="CbvE8tjpt2fCtOc4ycin-145" value="&lt;h1&gt;&lt;font color=&quot;#ea6b66&quot; style=&quot;font-size: 14px&quot;&gt;APP&lt;/font&gt;&lt;/h1&gt;" style="text;html=1;resizable=0;autosize=1;align=center;verticalAlign=middle;points=[];fillColor=none;strokeColor=none;rounded=0;dashed=1;" parent="CbvE8tjpt2fCtOc4ycin-104" vertex="1">
          <mxGeometry x="11.41176470588232" y="-19.80681818181813" width="40" height="50" as="geometry"/>
        </mxCell>
        <mxCell id="CbvE8tjpt2fCtOc4ycin-116" value="" style="edgeStyle=none;shape=flexArrow;rounded=0;orthogonalLoop=1;jettySize=auto;html=1;fillColor=#d5e8d4;strokeColor=#82b366;" parent="1" source="CbvE8tjpt2fCtOc4ycin-93" target="CbvE8tjpt2fCtOc4ycin-54" edge="1">
          <mxGeometry relative="1" as="geometry"/>
        </mxCell>
        <mxCell id="CbvE8tjpt2fCtOc4ycin-142" value="&lt;h1&gt;&lt;font color=&quot;#ea6b66&quot;&gt;召回层&lt;/font&gt;&lt;/h1&gt;" style="text;html=1;resizable=0;autosize=1;align=center;verticalAlign=middle;points=[];fillColor=none;strokeColor=none;rounded=0;dashed=1;" parent="1" vertex="1">
          <mxGeometry x="114.91176470588235" y="449.19318181818187" width="90" height="50" as="geometry"/>
        </mxCell>
        <mxCell id="CbvE8tjpt2fCtOc4ycin-147" value="&lt;h1&gt;&lt;font style=&quot;font-size: 20px&quot; color=&quot;#3333ff&quot;&gt;Tesla&lt;/font&gt;&lt;/h1&gt;" style="text;html=1;resizable=0;autosize=1;align=center;verticalAlign=middle;points=[];fillColor=none;strokeColor=none;rounded=0;dashed=1;" parent="1" vertex="1">
          <mxGeometry x="289.9117647058823" y="180.19318181818187" width="70" height="50" as="geometry"/>
        </mxCell>
        <mxCell id="X8DTBH9zhgD74dMaE-Rt-1" value="" style="group" vertex="1" connectable="0" parent="1">
          <mxGeometry x="610" y="195" width="270" height="110" as="geometry"/>
        </mxCell>
        <mxCell id="X8DTBH9zhgD74dMaE-Rt-2" value="" style="rounded=1;whiteSpace=wrap;html=1;dashed=1;" vertex="1" parent="X8DTBH9zhgD74dMaE-Rt-1">
          <mxGeometry x="-9.310344827586206" y="-10" width="279.3103448275862" height="110" as="geometry"/>
        </mxCell>
        <mxCell id="CbvE8tjpt2fCtOc4ycin-12" value="词组合" style="rounded=1;whiteSpace=wrap;html=1;fillColor=#ffe6cc;strokeColor=#d79b00;" parent="X8DTBH9zhgD74dMaE-Rt-1" vertex="1">
          <mxGeometry x="210" y="30" width="48" height="40" as="geometry"/>
        </mxCell>
        <mxCell id="X8DTBH9zhgD74dMaE-Rt-19" value="纠错" style="rounded=1;whiteSpace=wrap;html=1;fillColor=#ffe6cc;strokeColor=#d79b00;" vertex="1" parent="X8DTBH9zhgD74dMaE-Rt-1">
          <mxGeometry y="30" width="48" height="40" as="geometry"/>
        </mxCell>
        <mxCell id="X8DTBH9zhgD74dMaE-Rt-20" value="关键词提取" style="rounded=1;whiteSpace=wrap;html=1;fillColor=#ffe6cc;strokeColor=#d79b00;" vertex="1" parent="X8DTBH9zhgD74dMaE-Rt-1">
          <mxGeometry x="70" y="30" width="48" height="40" as="geometry"/>
        </mxCell>
        <mxCell id="X8DTBH9zhgD74dMaE-Rt-21" value="识别与扩展" style="rounded=1;whiteSpace=wrap;html=1;fillColor=#ffe6cc;strokeColor=#d79b00;" vertex="1" parent="X8DTBH9zhgD74dMaE-Rt-1">
          <mxGeometry x="140" y="30" width="48" height="40" as="geometry"/>
        </mxCell>
        <mxCell id="X8DTBH9zhgD74dMaE-Rt-22" value="&lt;h1&gt;&lt;font color=&quot;#ea6b66&quot; style=&quot;font-size: 14px&quot;&gt;QueryRewrite&amp;nbsp; &amp;nbsp;&lt;/font&gt;&lt;/h1&gt;" style="text;html=1;resizable=0;autosize=1;align=center;verticalAlign=middle;points=[];fillColor=none;strokeColor=none;rounded=0;dashed=1;" vertex="1" parent="X8DTBH9zhgD74dMaE-Rt-1">
          <mxGeometry x="-9.379201680672281" y="-19.80681818181813" width="120" height="50" as="geometry"/>
        </mxCell>
        <mxCell id="CbvE8tjpt2fCtOc4ycin-148" value="&lt;h1&gt;&lt;font style=&quot;font-size: 20px&quot; color=&quot;#3333ff&quot;&gt;Einstein&lt;/font&gt;&lt;/h1&gt;" style="text;html=1;resizable=0;autosize=1;align=center;verticalAlign=middle;points=[];fillColor=none;strokeColor=none;rounded=0;dashed=1;" parent="X8DTBH9zhgD74dMaE-Rt-1" vertex="1">
          <mxGeometry x="94.94222689075627" y="-19.80681818181813" width="90" height="50" as="geometry"/>
        </mxCell>
        <mxCell id="X8DTBH9zhgD74dMaE-Rt-31" style="edgeStyle=none;shape=flexArrow;rounded=0;orthogonalLoop=1;jettySize=auto;html=1;exitX=0.25;exitY=0;exitDx=0;exitDy=0;fillColor=#d5e8d4;strokeColor=#82b366;" edge="1" parent="1" source="CbvE8tjpt2fCtOc4ycin-27" target="CbvE8tjpt2fCtOc4ycin-18">
          <mxGeometry relative="1" as="geometry"/>
        </mxCell>
      </root>
    </mxGraphModel>
  </diagram>
</mxfile>
